{
	"asset":{
		"generator":"Khronos glTF Blender I/O v4.1.62",
		"version":"2.0"
	},
	"extensionsUsed":[
		"KHR_materials_specular"
	],
	"scene":0,
	"scenes":[
		{
			"name":"Scene",
			"nodes":[
				0,
				1,
				2,
				3
			]
		}
	],
	"nodes":[
		{
			"mesh":0,
			"name":"Cube",
			"scale":[
				0.21039606630802155,
				0.21039606630802155,
				0.21039606630802155
			],
			"translation":[
				0,
				0.9250706434249878,
				0
			]
		},
		{
			"mesh":1,
			"name":"Cube.001",
			"scale":[
				0.2995975613594055,
				0.2995975613594055,
				0.2995975613594055
			],
			"translation":[
				0,
				0.3282511532306671,
				0
			]
		},
		{
			"mesh":2,
			"name":"Cube.002",
			"scale":[
				-0.16087785363197327,
				-0.20447486639022827,
				-0.38018298149108887
			],
			"translation":[
				0,
				2.2574961185455322,
				0
			]
		},
		{
			"mesh":3,
			"name":"Cube.003",
			"scale":[
				0.052634891122579575,
				0.041287630796432495,
				0.04330046474933624
			],
			"translation":[
				-3.779435873031616,
				0.7444104552268982,
				0
			]
		}
	],
	"materials":[
		{
			"doubleSided":true,
			"extensions":{
				"KHR_materials_specular":{
					"specularColorFactor":[
						1.2285715341567993,
						1.2285715341567993,
						1.2285715341567993
					]
				}
			},
			"name":"metal",
			"pbrMetallicRoughness":{
				"baseColorFactor":[
					0.6669926643371582,
					0.8083546161651611,
					0.828618586063385,
					1
				],
				"metallicFactor":0.5275590419769287,
				"roughnessFactor":0.18787401914596558
			}
		},
		{
			"doubleSided":true,
			"name":"wood",
			"pbrMetallicRoughness":{
				"baseColorFactor":[
					0.2304573953151703,
					0,
					0.5043037533760071,
					1
				],
				"metallicFactor":0.4409448504447937,
				"roughnessFactor":0.3268616199493408
			}
		},
		{
			"doubleSided":true,
			"name":"Material.001",
			"pbrMetallicRoughness":{
				"baseColorFactor":[
					0.003672380931675434,
					0.7281012535095215,
					1,
					1
				],
				"metallicFactor":0,
				"roughnessFactor":0.5
			}
		},
		{
			"doubleSided":true,
			"name":"Material.002",
			"pbrMetallicRoughness":{
				"baseColorFactor":[
					0.8755569458007812,
					0,
					0.31318700313568115,
					1
				],
				"metallicFactor":0.4645669162273407,
				"roughnessFactor":0.3897637724876404
			}
		},
		{
			"doubleSided":true,
			"name":"Material",
			"pbrMetallicRoughness":{
				"baseColorFactor":[
					0,
					0.7078190445899963,
					0.14296753704547882,
					1
				],
				"metallicFactor":0,
				"roughnessFactor":0.5
			}
		}
	],
	"meshes":[
		{
			"name":"Cube.002",
			"primitives":[
				{
					"attributes":{
						"POSITION":0,
						"NORMAL":1,
						"TEXCOORD_0":2
					},
					"indices":3,
					"material":0
				},
				{
					"attributes":{
						"POSITION":4,
						"NORMAL":5,
						"TEXCOORD_0":6
					},
					"indices":7,
					"material":1
				}
			]
		},
		{
			"name":"Cube.003",
			"primitives":[
				{
					"attributes":{
						"POSITION":8,
						"NORMAL":9,
						"TEXCOORD_0":10
					},
					"indices":11,
					"material":0
				},
				{
					"attributes":{
						"POSITION":12,
						"NORMAL":13,
						"TEXCOORD_0":14
					},
					"indices":15,
					"material":1
				}
			]
		},
		{
			"name":"Cube.004",
			"primitives":[
				{
					"attributes":{
						"POSITION":16,
						"NORMAL":17,
						"TEXCOORD_0":18
					},
					"indices":19,
					"material":1
				},
				{
					"attributes":{
						"POSITION":20,
						"NORMAL":21,
						"TEXCOORD_0":22
					},
					"indices":23,
					"material":2
				},
				{
					"attributes":{
						"POSITION":24,
						"NORMAL":25,
						"TEXCOORD_0":26
					},
					"indices":27,
					"material":3
				}
			]
		},
		{
			"name":"Cube.005",
			"primitives":[
				{
					"attributes":{
						"POSITION":28,
						"NORMAL":29,
						"TEXCOORD_0":30
					},
					"indices":31,
					"material":4
				}
			]
		}
	],
	"accessors":[
		{
			"bufferView":0,
			"componentType":5126,
			"count":42,
			"max":[
				6.161369323730469,
				17.072011947631836,
				1.0222113132476807
			],
			"min":[
				1,
				5.844113349914551,
				-1.0222113132476807
			],
			"type":"VEC3"
		},
		{
			"bufferView":1,
			"componentType":5126,
			"count":42,
			"type":"VEC3"
		},
		{
			"bufferView":2,
			"componentType":5126,
			"count":42,
			"type":"VEC2"
		},
		{
			"bufferView":3,
			"componentType":5123,
			"count":66,
			"type":"SCALAR"
		},
		{
			"bufferView":4,
			"componentType":5126,
			"count":48,
			"max":[
				1.0444227457046509,
				17.068092346191406,
				1.0444227457046509
			],
			"min":[
				-1.0444227457046509,
				-1.1234099864959717,
				-1.0444227457046509
			],
			"type":"VEC3"
		},
		{
			"bufferView":5,
			"componentType":5126,
			"count":48,
			"type":"VEC3"
		},
		{
			"bufferView":6,
			"componentType":5126,
			"count":48,
			"type":"VEC2"
		},
		{
			"bufferView":7,
			"componentType":5123,
			"count":84,
			"type":"SCALAR"
		},
		{
			"bufferView":8,
			"componentType":5126,
			"count":928,
			"max":[
				4.644635200500488,
				19.992334365844727,
				1.1730821132659912
			],
			"min":[
				-4.644635200500488,
				0.310330867767334,
				-1.1730821132659912
			],
			"type":"VEC3"
		},
		{
			"bufferView":9,
			"componentType":5126,
			"count":928,
			"type":"VEC3"
		},
		{
			"bufferView":10,
			"componentType":5126,
			"count":928,
			"type":"VEC2"
		},
		{
			"bufferView":11,
			"componentType":5123,
			"count":2595,
			"type":"SCALAR"
		},
		{
			"bufferView":12,
			"componentType":5126,
			"count":63,
			"max":[
				4.644635200500488,
				7.441022872924805,
				1.1730821132659912
			],
			"min":[
				0,
				0.310330867767334,
				-1.1730821132659912
			],
			"type":"VEC3"
		},
		{
			"bufferView":13,
			"componentType":5126,
			"count":63,
			"type":"VEC3"
		},
		{
			"bufferView":14,
			"componentType":5126,
			"count":63,
			"type":"VEC2"
		},
		{
			"bufferView":15,
			"componentType":5123,
			"count":117,
			"type":"SCALAR"
		},
		{
			"bufferView":16,
			"componentType":5126,
			"count":170,
			"max":[
				1,
				9.836925506591797,
				1
			],
			"min":[
				-24.131847381591797,
				-1.5310512781143188,
				-1
			],
			"type":"VEC3"
		},
		{
			"bufferView":17,
			"componentType":5126,
			"count":170,
			"type":"VEC3"
		},
		{
			"bufferView":18,
			"componentType":5126,
			"count":170,
			"type":"VEC2"
		},
		{
			"bufferView":19,
			"componentType":5123,
			"count":330,
			"type":"SCALAR"
		},
		{
			"bufferView":20,
			"componentType":5126,
			"count":16,
			"max":[
				1,
				1,
				1
			],
			"min":[
				-1,
				-1,
				-1
			],
			"type":"VEC3"
		},
		{
			"bufferView":21,
			"componentType":5126,
			"count":16,
			"type":"VEC3"
		},
		{
			"bufferView":22,
			"componentType":5126,
			"count":16,
			"type":"VEC2"
		},
		{
			"bufferView":23,
			"componentType":5123,
			"count":24,
			"type":"SCALAR"
		},
		{
			"bufferView":24,
			"componentType":5126,
			"count":48,
			"max":[
				-9.905272483825684,
				9.836925506591797,
				1
			],
			"min":[
				-24.131847381591797,
				-1,
				-1
			],
			"type":"VEC3"
		},
		{
			"bufferView":25,
			"componentType":5126,
			"count":48,
			"type":"VEC3"
		},
		{
			"bufferView":26,
			"componentType":5126,
			"count":48,
			"type":"VEC2"
		},
		{
			"bufferView":27,
			"componentType":5123,
			"count":90,
			"type":"SCALAR"
		},
		{
			"bufferView":28,
			"componentType":5126,
			"count":24,
			"max":[
				144.7191619873047,
				1,
				1
			],
			"min":[
				-1,
				-1,
				-1
			],
			"type":"VEC3"
		},
		{
			"bufferView":29,
			"componentType":5126,
			"count":24,
			"type":"VEC3"
		},
		{
			"bufferView":30,
			"componentType":5126,
			"count":24,
			"type":"VEC2"
		},
		{
			"bufferView":31,
			"componentType":5123,
			"count":36,
			"type":"SCALAR"
		}
	],
	"bufferViews":[
		{
			"buffer":0,
			"byteLength":504,
			"byteOffset":0,
			"target":34962
		},
		{
			"buffer":0,
			"byteLength":504,
			"byteOffset":504,
			"target":34962
		},
		{
			"buffer":0,
			"byteLength":336,
			"byteOffset":1008,
			"target":34962
		},
		{
			"buffer":0,
			"byteLength":132,
			"byteOffset":1344,
			"target":34963
		},
		{
			"buffer":0,
			"byteLength":576,
			"byteOffset":1476,
			"target":34962
		},
		{
			"buffer":0,
			"byteLength":576,
			"byteOffset":2052,
			"target":34962
		},
		{
			"buffer":0,
			"byteLength":384,
			"byteOffset":2628,
			"target":34962
		},
		{
			"buffer":0,
			"byteLength":168,
			"byteOffset":3012,
			"target":34963
		},
		{
			"buffer":0,
			"byteLength":11136,
			"byteOffset":3180,
			"target":34962
		},
		{
			"buffer":0,
			"byteLength":11136,
			"byteOffset":14316,
			"target":34962
		},
		{
			"buffer":0,
			"byteLength":7424,
			"byteOffset":25452,
			"target":34962
		},
		{
			"buffer":0,
			"byteLength":5190,
			"byteOffset":32876,
			"target":34963
		},
		{
			"buffer":0,
			"byteLength":756,
			"byteOffset":38068,
			"target":34962
		},
		{
			"buffer":0,
			"byteLength":756,
			"byteOffset":38824,
			"target":34962
		},
		{
			"buffer":0,
			"byteLength":504,
			"byteOffset":39580,
			"target":34962
		},
		{
			"buffer":0,
			"byteLength":234,
			"byteOffset":40084,
			"target":34963
		},
		{
			"buffer":0,
			"byteLength":2040,
			"byteOffset":40320,
			"target":34962
		},
		{
			"buffer":0,
			"byteLength":2040,
			"byteOffset":42360,
			"target":34962
		},
		{
			"buffer":0,
			"byteLength":1360,
			"byteOffset":44400,
			"target":34962
		},
		{
			"buffer":0,
			"byteLength":660,
			"byteOffset":45760,
			"target":34963
		},
		{
			"buffer":0,
			"byteLength":192,
			"byteOffset":46420,
			"target":34962
		},
		{
			"buffer":0,
			"byteLength":192,
			"byteOffset":46612,
			"target":34962
		},
		{
			"buffer":0,
			"byteLength":128,
			"byteOffset":46804,
			"target":34962
		},
		{
			"buffer":0,
			"byteLength":48,
			"byteOffset":46932,
			"target":34963
		},
		{
			"buffer":0,
			"byteLength":576,
			"byteOffset":46980,
			"target":34962
		},
		{
			"buffer":0,
			"byteLength":576,
			"byteOffset":47556,
			"target":34962
		},
		{
			"buffer":0,
			"byteLength":384,
			"byteOffset":48132,
			"target":34962
		},
		{
			"buffer":0,
			"byteLength":180,
			"byteOffset":48516,
			"target":34963
		},
		{
			"buffer":0,
			"byteLength":288,
			"byteOffset":48696,
			"target":34962
		},
		{
			"buffer":0,
			"byteLength":288,
			"byteOffset":48984,
			"target":34962
		},
		{
			"buffer":0,
			"byteLength":192,
			"byteOffset":49272,
			"target":34962
		},
		{
			"buffer":0,
			"byteLength":72,
			"byteOffset":49464,
			"target":34963
		}
	],
	"buffers":[
		{
			"byteLength":49536,
			"uri":"gamer%20bow.bin"
		}
	]
}
