{
	"asset":{
		"generator":"Khronos glTF Blender I/O v3.6.28",
		"version":"2.0"
	},
	"scene":0,
	"scenes":[
		{
			"name":"Scene",
			"nodes":[
				0
			]
		}
	],
	"nodes":[
		{
			"mesh":0,
			"name":"Cube",
			"scale":[
				20.747272491455078,
				12.734211921691895,
				20.747272491455078
			],
			"translation":[
				0,
				12.303560256958008,
				0
			]
		}
	],
	"materials":[
		{
			"doubleSided":true,
			"name":"Material",
			"pbrMetallicRoughness":{
				"baseColorFactor":[
					0.800000011920929,
					0.800000011920929,
					0.800000011920929,
					1
				],
				"metallicFactor":0,
				"roughnessFactor":0.5
			}
		}
	],
	"meshes":[
		{
			"name":"Cube",
			"primitives":[
				{
					"attributes":{
						"COLOR_0":0,
						"POSITION":1,
						"NORMAL":2,
						"TEXCOORD_0":3
					},
					"indices":4,
					"material":0
				}
			]
		}
	],
	"accessors":[
		{
			"bufferView":0,
			"componentType":5123,
			"count":2460,
			"normalized":true,
			"type":"VEC4"
		},
		{
			"bufferView":1,
			"componentType":5126,
			"count":2460,
			"max":[
				1,
				1,
				1
			],
			"min":[
				-1,
				-1,
				-1
			],
			"type":"VEC3"
		},
		{
			"bufferView":2,
			"componentType":5126,
			"count":2460,
			"type":"VEC3"
		},
		{
			"bufferView":3,
			"componentType":5126,
			"count":2460,
			"type":"VEC2"
		},
		{
			"bufferView":4,
			"componentType":5123,
			"count":13908,
			"type":"SCALAR"
		}
	],
	"bufferViews":[
		{
			"buffer":0,
			"byteLength":19680,
			"byteOffset":0,
			"target":34962
		},
		{
			"buffer":0,
			"byteLength":29520,
			"byteOffset":19680,
			"target":34962
		},
		{
			"buffer":0,
			"byteLength":29520,
			"byteOffset":49200,
			"target":34962
		},
		{
			"buffer":0,
			"byteLength":19680,
			"byteOffset":78720,
			"target":34962
		},
		{
			"buffer":0,
			"byteLength":27816,
			"byteOffset":98400,
			"target":34963
		}
	],
	"buffers":[
		{
			"byteLength":126216,
			"uri":"cavecube.bin"
		}
	]
}
