{
	"asset": {
		"generator": "Khronos glTF Blender I/O v4.1.62",
		"version": "2.0"
	},
	"scene": 0,
	"scenes": [
		{
			"name": "Scene",
			"nodes": [0, 1]
		}
	],
	"nodes": [
		{
			"mesh": 0,
			"name": "Cube",
			"scale": [0.5077568888664246, 0.27189263701438904, 1.1462239027023315],
			"translation": [0, 0.9722320437431335, 0]
		},
		{
			"mesh": 1,
			"name": "Cylinder",
			"scale": [0.7692411541938782, 0.9722239971160889, 0.7742872834205627],
			"translation": [0, 1.2205915451049805, 0]
		}
	],
	"materials": [
		{
			"doubleSided": true,
			"name": "Material.003",
			"pbrMetallicRoughness": {
				"baseColorFactor": [0.6757367849349976, 0.842529296875, 0.863662838935852, 1],
				"metallicFactor": 0.5826771259307861,
				"roughnessFactor": 0.18897701799869537
			}
		},
		{
			"doubleSided": true,
			"name": "Material.005",
			"pbrMetallicRoughness": {
				"baseColorFactor": [0.8055132031440735, 0.8055132031440735, 0.8055132031440735, 1],
				"metallicFactor": 0,
				"roughnessFactor": 0.5
			}
		},
		{
			"doubleSided": true,
			"name": "Material.006",
			"pbrMetallicRoughness": {
				"baseColorFactor": [0.2398168295621872, 0.05837636813521385, 0.029226094484329224, 1],
				"metallicFactor": 0,
				"roughnessFactor": 0.5
			}
		},
		{
			"doubleSided": true,
			"name": "Material.007",
			"pbrMetallicRoughness": {
				"baseColorFactor": [0.5961443185806274, 0.5961443185806274, 0.5961443185806274, 1],
				"metallicFactor": 0,
				"roughnessFactor": 0.5
			}
		}
	],
	"meshes": [
		{
			"name": "Cube",
			"primitives": [
				{
					"attributes": {
						"POSITION": 0,
						"NORMAL": 1,
						"TEXCOORD_0": 2
					},
					"indices": 3,
					"material": 0
				}
			]
		},
		{
			"name": "Cylinder",
			"primitives": [
				{
					"attributes": {
						"POSITION": 4,
						"NORMAL": 5,
						"TEXCOORD_0": 6
					},
					"indices": 7,
					"material": 1
				},
				{
					"attributes": {
						"POSITION": 8,
						"NORMAL": 9,
						"TEXCOORD_0": 10
					},
					"indices": 11,
					"material": 2
				},
				{
					"attributes": {
						"POSITION": 12,
						"NORMAL": 13,
						"TEXCOORD_0": 14
					},
					"indices": 15,
					"material": 3
				}
			]
		}
	],
	"accessors": [
		{
			"bufferView": 0,
			"componentType": 5126,
			"count": 52,
			"max": [1, 1, 1],
			"min": [-1, -1, -1],
			"type": "VEC3"
		},
		{
			"bufferView": 1,
			"componentType": 5126,
			"count": 52,
			"type": "VEC3"
		},
		{
			"bufferView": 2,
			"componentType": 5126,
			"count": 52,
			"type": "VEC2"
		},
		{
			"bufferView": 3,
			"componentType": 5123,
			"count": 84,
			"type": "SCALAR"
		},
		{
			"bufferView": 4,
			"componentType": 5126,
			"count": 1122,
			"max": [1, 1.186462640762329, 1],
			"min": [-1, -1.1409519910812378, -1],
			"type": "VEC3"
		},
		{
			"bufferView": 5,
			"componentType": 5126,
			"count": 1122,
			"type": "VEC3"
		},
		{
			"bufferView": 6,
			"componentType": 5126,
			"count": 1122,
			"type": "VEC2"
		},
		{
			"bufferView": 7,
			"componentType": 5123,
			"count": 1836,
			"type": "SCALAR"
		},
		{
			"bufferView": 8,
			"componentType": 5126,
			"count": 128,
			"max": [0.9081976413726807, -0.01147526502609253, 0.9081976413726807],
			"min": [-0.9081976413726807, -0.2385246753692627, -0.9081976413726807],
			"type": "VEC3"
		},
		{
			"bufferView": 9,
			"componentType": 5126,
			"count": 128,
			"type": "VEC3"
		},
		{
			"bufferView": 10,
			"componentType": 5126,
			"count": 128,
			"type": "VEC2"
		},
		{
			"bufferView": 11,
			"componentType": 5123,
			"count": 192,
			"type": "SCALAR"
		},
		{
			"bufferView": 12,
			"componentType": 5126,
			"count": 424,
			"max": [1, 1.186462640762329, 1],
			"min": [-1, -1.1409519910812378, -0.9807852506637573],
			"type": "VEC3"
		},
		{
			"bufferView": 13,
			"componentType": 5126,
			"count": 424,
			"type": "VEC3"
		},
		{
			"bufferView": 14,
			"componentType": 5126,
			"count": 424,
			"type": "VEC2"
		},
		{
			"bufferView": 15,
			"componentType": 5123,
			"count": 672,
			"type": "SCALAR"
		}
	],
	"bufferViews": [
		{
			"buffer": 0,
			"byteLength": 624,
			"byteOffset": 0,
			"target": 34962
		},
		{
			"buffer": 0,
			"byteLength": 624,
			"byteOffset": 624,
			"target": 34962
		},
		{
			"buffer": 0,
			"byteLength": 416,
			"byteOffset": 1248,
			"target": 34962
		},
		{
			"buffer": 0,
			"byteLength": 168,
			"byteOffset": 1664,
			"target": 34963
		},
		{
			"buffer": 0,
			"byteLength": 13464,
			"byteOffset": 1832,
			"target": 34962
		},
		{
			"buffer": 0,
			"byteLength": 13464,
			"byteOffset": 15296,
			"target": 34962
		},
		{
			"buffer": 0,
			"byteLength": 8976,
			"byteOffset": 28760,
			"target": 34962
		},
		{
			"buffer": 0,
			"byteLength": 3672,
			"byteOffset": 37736,
			"target": 34963
		},
		{
			"buffer": 0,
			"byteLength": 1536,
			"byteOffset": 41408,
			"target": 34962
		},
		{
			"buffer": 0,
			"byteLength": 1536,
			"byteOffset": 42944,
			"target": 34962
		},
		{
			"buffer": 0,
			"byteLength": 1024,
			"byteOffset": 44480,
			"target": 34962
		},
		{
			"buffer": 0,
			"byteLength": 384,
			"byteOffset": 45504,
			"target": 34963
		},
		{
			"buffer": 0,
			"byteLength": 5088,
			"byteOffset": 45888,
			"target": 34962
		},
		{
			"buffer": 0,
			"byteLength": 5088,
			"byteOffset": 50976,
			"target": 34962
		},
		{
			"buffer": 0,
			"byteLength": 3392,
			"byteOffset": 56064,
			"target": 34962
		},
		{
			"buffer": 0,
			"byteLength": 1344,
			"byteOffset": 59456,
			"target": 34963
		}
	],
	"buffers": [
		{
			"byteLength": 60800,
			"uri": "string.bin"
		}
	]
}
