{
	"asset":{
		"generator":"Khronos glTF Blender I/O v4.1.62",
		"version":"2.0"
	},
	"extensionsUsed":[
		"KHR_materials_specular"
	],
	"scene":0,
	"scenes":[
		{
			"name":"Scene",
			"nodes":[
				0
			]
		}
	],
	"nodes":[
		{
			"mesh":0,
			"name":"Cube"
		}
	],
	"materials":[
		{
			"doubleSided":true,
			"name":"wood",
			"pbrMetallicRoughness":{
				"baseColorFactor":[
					1,
					0.31908711791038513,
					0,
					1
				],
				"metallicFactor":0,
				"roughnessFactor":0.7914285659790039
			}
		},
		{
			"doubleSided":true,
			"extensions":{
				"KHR_materials_specular":{
					"specularColorFactor":[
						1.2285715341567993,
						1.2285715341567993,
						1.2285715341567993
					]
				}
			},
			"name":"metal",
			"pbrMetallicRoughness":{
				"baseColorFactor":[
					0.5136945843696594,
					0.5136945843696594,
					0.5136945843696594,
					1
				],
				"metallicFactor":0,
				"roughnessFactor":0.18000000715255737
			}
		}
	],
	"meshes":[
		{
			"name":"Cube",
			"primitives":[
				{
					"attributes":{
						"POSITION":0,
						"NORMAL":1,
						"TEXCOORD_0":2
					},
					"indices":3,
					"material":0
				},
				{
					"attributes":{
						"POSITION":4,
						"NORMAL":5,
						"TEXCOORD_0":6
					},
					"indices":7,
					"material":1
				}
			]
		}
	],
	"accessors":[
		{
			"bufferView":0,
			"componentType":5126,
			"count":56,
			"max":[
				0.23432636260986328,
				3.793034315109253,
				0.23432636260986328
			],
			"min":[
				-0.23432636260986328,
				-0.10621172189712524,
				-0.28530433773994446
			],
			"type":"VEC3"
		},
		{
			"bufferView":1,
			"componentType":5126,
			"count":56,
			"type":"VEC3"
		},
		{
			"bufferView":2,
			"componentType":5126,
			"count":56,
			"type":"VEC2"
		},
		{
			"bufferView":3,
			"componentType":5123,
			"count":84,
			"type":"SCALAR"
		},
		{
			"bufferView":4,
			"componentType":5126,
			"count":106,
			"max":[
				1.6325169801712036,
				3.6381289958953857,
				0.21485835313796997
			],
			"min":[
				-0.015672743320465088,
				2.7443363666534424,
				-0.29972168803215027
			],
			"type":"VEC3"
		},
		{
			"bufferView":5,
			"componentType":5126,
			"count":106,
			"type":"VEC3"
		},
		{
			"bufferView":6,
			"componentType":5126,
			"count":106,
			"type":"VEC2"
		},
		{
			"bufferView":7,
			"componentType":5123,
			"count":192,
			"type":"SCALAR"
		}
	],
	"bufferViews":[
		{
			"buffer":0,
			"byteLength":672,
			"byteOffset":0,
			"target":34962
		},
		{
			"buffer":0,
			"byteLength":672,
			"byteOffset":672,
			"target":34962
		},
		{
			"buffer":0,
			"byteLength":448,
			"byteOffset":1344,
			"target":34962
		},
		{
			"buffer":0,
			"byteLength":168,
			"byteOffset":1792,
			"target":34963
		},
		{
			"buffer":0,
			"byteLength":1272,
			"byteOffset":1960,
			"target":34962
		},
		{
			"buffer":0,
			"byteLength":1272,
			"byteOffset":3232,
			"target":34962
		},
		{
			"buffer":0,
			"byteLength":848,
			"byteOffset":4504,
			"target":34962
		},
		{
			"buffer":0,
			"byteLength":384,
			"byteOffset":5352,
			"target":34963
		}
	],
	"buffers":[
		{
			"byteLength":5736,
			"uri":"pickaxe.bin"
		}
	]
}
