<svg width="100" height="800" viewBox="0 0 100 800" fill="none" xmlns="http://www.w3.org/2000/svg">
	<g clip-path="url(#clip0_2560_2685)">
		<path
			d="M62.0566 60L26 32.3243L29.566 28L68 55.0991L62.0566 60Z"
			fill="#C58A31"
			stroke="black"
			stroke-width="3"
			stroke-linecap="round"
			stroke-linejoin="round"
		/>
		<path d="M68 69L77 82.5" stroke="black" stroke-width="3" stroke-linecap="round" stroke-linejoin="round" />
		<path d="M76.5 62L91 69" stroke="black" stroke-width="3" stroke-linecap="round" stroke-linejoin="round" />
		<path d="M78.5 70.5L93 85.5" stroke="black" stroke-width="3" stroke-linecap="round" />
		<path
			d="M25 41.5L10.5 17L40.5 25L25 41.5Z"
			fill="#B4B4B4"
			stroke="black"
			stroke-width="3"
			stroke-linecap="round"
			stroke-linejoin="round"
		/>
		<path
			d="M25.5 120.5L32 108L47 109.5L53.5 120.5L48.5 133.5H32L25.5 120.5Z"
			fill="#F82727"
			stroke="black"
			stroke-width="3"
			stroke-linecap="round"
			stroke-linejoin="round"
		/>
		<path d="M36 117.5V122.5" stroke="black" stroke-width="3" stroke-linecap="round" stroke-linejoin="round" />
		<path d="M43.5 115.5V122" stroke="black" stroke-width="3" stroke-linecap="round" stroke-linejoin="round" />
		<path
			d="M28 172L35.0769 139H48.3077L60 168.446L28 172Z"
			fill="#F82727"
			stroke="black"
			stroke-width="3"
			stroke-linecap="round"
			stroke-linejoin="round"
		/>
		<path
			d="M68.5 149L78.5 171L66 179.5L51 171L48 164H56.5L51 153L68.5 149Z"
			fill="#FFDCBB"
			stroke="black"
			stroke-width="3"
			stroke-linecap="round"
			stroke-linejoin="round"
		/>
		<path d="M62.5 143.5V135.5" stroke="black" stroke-width="3" stroke-linecap="round" />
		<path d="M70 142L75 134" stroke="black" stroke-width="3" stroke-linecap="round" />
		<path
			d="M15.5 222.5V212L27.5 215L66 260L54.5 270.5L15.5 222.5Z"
			fill="#DCE4E9"
			stroke="black"
			stroke-width="3"
			stroke-linecap="round"
			stroke-linejoin="round"
		/>
		<path
			d="M69.5 249.5L42.5 273L54.5 277.5L62 273L72.5 282L76 277.5L67.5 266.5L72.5 259.5L69.5 249.5Z"
			fill="#E1C223"
			stroke="black"
			stroke-width="3"
			stroke-linecap="round"
			stroke-linejoin="round"
		/>
		<path
			d="M32.5 333.421C19.5 330.921 12.0001 339.91 12 350.921C12 357.921 16.5 365.921 25 365.921C35.0623 365.921 44.5 374.421 53 368.421C61.5 362.421 65.5 366.421 75 365.921C84.5 365.421 91.5 347.921 87.5 341.421C83.5 334.921 79.5 337.421 62.5 341.421C45.5 345.421 45.5 335.921 32.5 333.421Z"
			fill="#C227E9"
			stroke="black"
			stroke-width="3"
			stroke-linecap="round"
			stroke-linejoin="round"
		/>
		<path
			d="M52 332.5L54.5 327.5L66.5 332.5L67.5 323L76 324.5L72.5 334L83.5 338L82 343.5L69.5 340.5L66.5 351.5L58.5 347.5L63.5 337L52 332.5Z"
			fill="#FD1919"
			stroke="black"
			stroke-width="3"
			stroke-linecap="round"
			stroke-linejoin="round"
		/>
		<path
			d="M32.5 431.921C19.5 429.421 12.0001 438.41 12 449.421C12 456.421 16.5 464.421 25 464.421C35.0623 464.421 44.5 472.921 53 466.921C61.5 460.921 65.5 464.921 75 464.421C84.5 463.921 91.5 446.421 87.5 439.921C83.5 433.421 79.5 435.921 62.5 439.921C45.5 443.921 45.5 434.421 32.5 431.921Z"
			fill="#C227E9"
			stroke="black"
			stroke-width="3"
			stroke-linecap="round"
			stroke-linejoin="round"
		/>
		<path
			d="M41.5 443L49 430.5L69 435L72 446.5L41.5 443Z"
			fill="#D2C7A9"
			stroke="black"
			stroke-width="3"
			stroke-linecap="round"
			stroke-linejoin="round"
		/>
		<path
			d="M73 437.5L44 430.5L51 419L57 421.5L59.5 412H68L65.5 424L73 427.5V437.5Z"
			fill="#B97544"
			stroke="black"
			stroke-width="3"
			stroke-linecap="round"
			stroke-linejoin="round"
		/>
		<path
			d="M80.5 545.5C80.5 550.128 77.266 554.597 71.4335 557.992C65.6383 561.365 57.5335 563.5 48.5 563.5C39.4665 563.5 31.3617 561.365 25.5665 557.992C19.734 554.597 16.5 550.128 16.5 545.5C16.5 540.872 19.734 536.403 25.5665 533.008C31.3617 529.635 39.4665 527.5 48.5 527.5C57.5335 527.5 65.6383 529.635 71.4335 533.008C77.266 536.403 80.5 540.872 80.5 545.5Z"
			fill="#EDCFA0"
			stroke="black"
			stroke-width="3"
		/>
		<path
			fill-rule="evenodd"
			clip-rule="evenodd"
			d="M48.5 556C65.897 556 80 548.837 80 540C80 539.556 79.9643 539.116 79.8944 538.681C75.1442 531.274 62.8802 526 48.5001 526C34.1197 526 21.8556 531.274 17.1055 538.681C17.0356 539.116 17 539.556 17 540C17 548.837 31.103 556 48.5 556Z"
			fill="#EC75C3"
		/>
		<path
			d="M80.5 545.5C80.5 550.128 77.266 554.597 71.4335 557.992C65.6383 561.365 57.5335 563.5 48.5 563.5C39.4665 563.5 31.3617 561.365 25.5665 557.992C19.734 554.597 16.5 550.128 16.5 545.5C16.5 540.872 19.734 536.403 25.5665 533.008C31.3617 529.635 39.4665 527.5 48.5 527.5C57.5335 527.5 65.6383 529.635 71.4335 533.008C77.266 536.403 80.5 540.872 80.5 545.5Z"
			stroke="black"
			stroke-width="3"
		/>
		<path
			d="M37 543C44 547.5 57 546.5 61 543"
			stroke="black"
			stroke-width="3"
			stroke-linecap="round"
			stroke-linejoin="round"
		/>
		<path
			d="M81.5 538L91.5 560L79 568.5L64 560L61 553H69.5L64 542L81.5 538Z"
			fill="#FFDCBB"
			stroke="black"
			stroke-width="3"
			stroke-linecap="round"
			stroke-linejoin="round"
		/>
		<path d="M75.5 532.5V524.5" stroke="black" stroke-width="3" stroke-linecap="round" />
		<path d="M83 531L88 523" stroke="black" stroke-width="3" stroke-linecap="round" />
		<path
			d="M29.5 666V641L49.5 636L65.5 654L49.5 666H29.5Z"
			fill="#EAD9B8"
			stroke="black"
			stroke-width="3"
			stroke-linecap="round"
			stroke-linejoin="round"
		/>
		<path
			d="M35.5 649.5H41.5M50.5 644.5L47.5 647.5"
			stroke="black"
			stroke-width="3"
			stroke-linecap="round"
			stroke-linejoin="round"
		/>
		<path
			d="M39.5 654L41.5 657.5M51.5 649.5V654"
			stroke="black"
			stroke-width="3"
			stroke-linecap="round"
			stroke-linejoin="round"
		/>
		<path
			d="M17 650.5L20.5 623L47 617L64 636.5L17 650.5Z"
			fill="#8636AC"
			stroke="black"
			stroke-width="3"
			stroke-linecap="round"
			stroke-linejoin="round"
		/>
		<path
			d="M72.5 648.5L82.5 670.5L70 679L55 670.5L52 663.5H60.5L55 652.5L72.5 648.5Z"
			fill="#FFDCBB"
			stroke="black"
			stroke-width="3"
			stroke-linecap="round"
			stroke-linejoin="round"
		/>
		<path d="M66.5 643V635" stroke="black" stroke-width="3" stroke-linecap="round" />
		<path d="M74 641.5L79 633.5" stroke="black" stroke-width="3" stroke-linecap="round" />
	</g>
	<defs>
		<clipPath id="clip0_2560_2685">
			<rect width="100" height="800" fill="white" />
		</clipPath>
	</defs>
</svg>
