{
	"asset": {
		"generator": "Khronos glTF Blender I/O v3.6.28",
		"version": "2.0"
	},
	"scene": 0,
	"scenes": [
		{
			"name": "Scene",
			"nodes": [0]
		}
	],
	"nodes": [
		{
			"mesh": 0,
			"name": "Suzanne"
		}
	],
	"materials": [
		{
			"doubleSided": true,
			"name": "Material.001",
			"pbrMetallicRoughness": {
				"baseColorTexture": {
					"index": 0
				},
				"metallicFactor": 0,
				"metallicRoughnessTexture": {
					"index": 1
				}
			}
		}
	],
	"meshes": [
		{
			"name": "Suzanne",
			"primitives": [
				{
					"attributes": {
						"POSITION": 0,
						"NORMAL": 1,
						"TEXCOORD_0": 2
					},
					"indices": 3,
					"material": 0
				}
			]
		}
	],
	"textures": [
		{
			"sampler": 0,
			"source": 0
		},
		{
			"sampler": 0,
			"source": 1
		}
	],
	"images": [
		{
			"mimeType": "image/png",
			"name": "bruh",
			"uri": "bruh.png"
		},
		{
			"mimeType": "image/png",
			"name": "ruffness2",
			"uri": "ruffness2.png"
		}
	],
	"accessors": [
		{
			"bufferView": 0,
			"componentType": 5126,
			"count": 556,
			"max": [1.3671875, 0.984375, 0.8515625],
			"min": [-1.3671875, -0.984375, -0.8515625],
			"type": "VEC3"
		},
		{
			"bufferView": 1,
			"componentType": 5126,
			"count": 556,
			"type": "VEC3"
		},
		{
			"bufferView": 2,
			"componentType": 5126,
			"count": 556,
			"type": "VEC2"
		},
		{
			"bufferView": 3,
			"componentType": 5123,
			"count": 2904,
			"type": "SCALAR"
		}
	],
	"bufferViews": [
		{
			"buffer": 0,
			"byteLength": 6672,
			"byteOffset": 0,
			"target": 34962
		},
		{
			"buffer": 0,
			"byteLength": 6672,
			"byteOffset": 6672,
			"target": 34962
		},
		{
			"buffer": 0,
			"byteLength": 4448,
			"byteOffset": 13344,
			"target": 34962
		},
		{
			"buffer": 0,
			"byteLength": 5808,
			"byteOffset": 17792,
			"target": 34963
		}
	],
	"samplers": [
		{
			"magFilter": 9729,
			"minFilter": 9987
		}
	],
	"buffers": [
		{
			"byteLength": 23600,
			"uri": "shiny-eyes-monkey.bin"
		}
	]
}
