{
	"asset": {
		"generator": "Khronos glTF Blender I/O v4.0.44",
		"version": "2.0"
	},
	"scene": 0,
	"scenes": [
		{
			"name": "Scene",
			"nodes": [
				0, 1, 2, 3, 4, 5, 6, 7, 8, 9, 10, 11, 12, 13, 14, 15, 16, 17, 18, 19, 20, 21, 22, 23, 24, 25, 26, 27, 28, 29, 30
			]
		}
	],
	"nodes": [
		{
			"mesh": 0,
			"name": "Plane",
			"scale": [25.89999771118164, 1, 20.600000381469727],
			"translation": [0, -1, 0]
		},
		{
			"mesh": 0,
			"name": "Plane.001",
			"rotation": [0, 0, 0.7071068286895752, 0.7071068286895752],
			"scale": [4.199999809265137, 1, 20.600000381469727],
			"translation": [25.899999618530273, 3.200000047683716, 0]
		},
		{
			"mesh": 0,
			"name": "Plane.002",
			"rotation": [0, 0, -0.7071066498756409, 0.70710688829422],
			"scale": [4.199999809265137, 1, 20.600000381469727],
			"translation": [-25.899999618530273, 3.200000047683716, 0]
		},
		{
			"mesh": 0,
			"name": "Plane.003",
			"rotation": [0.7071068286895752, 0, 0, 0.7071068286895752],
			"scale": [25.89999771118164, 1, 4.199999809265137],
			"translation": [0, 3.1999998092651367, -20.600000381469727]
		},
		{
			"mesh": 0,
			"name": "Plane.004",
			"rotation": [-0.7071068286895752, 0, 0, 0.7071068286895752],
			"scale": [25.89999771118164, 1, 4.199999809265137],
			"translation": [0, 3.1999998092651367, 20.600000381469727]
		},
		{
			"mesh": 1,
			"name": "Cube",
			"scale": [0.4750000238418579, 1, 0.4750000238418579],
			"translation": [2, 0, 1]
		},
		{
			"mesh": 1,
			"name": "Cube.014",
			"scale": [1, 4, 7.699999809265137],
			"translation": [8, 3, 14]
		},
		{
			"mesh": 1,
			"name": "Cube.015",
			"rotation": [0, 0.7071068286895752, 0, 0.7071068286895752],
			"scale": [1, 4, 5],
			"translation": [13, 2.999999761581421, 7]
		},
		{
			"mesh": 1,
			"name": "Cube.016",
			"rotation": [0, 0.7071068286895752, 0, 0.7071068286895752],
			"scale": [1, 4, 3],
			"translation": [24, 2.999999761581421, 7]
		},
		{
			"mesh": 1,
			"name": "Cube.017",
			"rotation": [0, 0.7071068286895752, 0, 0.7071068286895752],
			"scale": [1, 1.5, 3],
			"translation": [19.5, 6, 7]
		},
		{
			"mesh": 1,
			"name": "Cube.018",
			"rotation": [0, 0.7071068286895752, 0, 0.7071068286895752],
			"scale": [1, 4, 8],
			"translation": [19, 2.999999761581421, -5]
		},
		{
			"mesh": 1,
			"name": "Cube.019",
			"scale": [1, 4, 2.4000000953674316],
			"translation": [12, 3, -3.5999999046325684]
		},
		{
			"mesh": 1,
			"name": "Cube.020",
			"scale": [1, 4, 2.5],
			"translation": [12, 3, 4.800000190734863]
		},
		{
			"mesh": 1,
			"name": "Cube.021",
			"scale": [1, 1.5, 3],
			"translation": [11.957934379577637, 6, 0.5655416250228882]
		},
		{
			"mesh": 1,
			"name": "Cube.022",
			"rotation": [0, 0.43837109208106995, 0, 0.8987941145896912],
			"scale": [0.5, 4, 2.5],
			"translation": [10.940000534057617, 3, -6.039999961853027]
		},
		{
			"mesh": 1,
			"name": "Cube.023",
			"rotation": [0, 0.3065260350704193, 0, 0.9518622756004333],
			"scale": [0.5, 4, 2],
			"translation": [7.860000133514404, 3, -9.100000381469727]
		},
		{
			"mesh": 1,
			"name": "Cube.024",
			"rotation": [0, -0.33627355098724365, 0, 0.9417643547058105],
			"scale": [0.5, 0.5800001621246338, 11.819999694824219],
			"translation": [0.08000001311302185, 8, -2.119999885559082]
		},
		{
			"mesh": 1,
			"name": "Cube.025",
			"scale": [0.75, 4, 3.379999876022339],
			"translation": [-6.760000228881836, 3, 7.479999542236328]
		},
		{
			"mesh": 1,
			"name": "Cube.026",
			"scale": [0.75, 4, 3.740000009536743],
			"translation": [-6.760000228881836, 3, 18.059999465942383]
		},
		{
			"mesh": 1,
			"name": "Cube.027",
			"scale": [0.75, 1.5, 3],
			"translation": [-6.760000228881836, 6, 12.5]
		},
		{
			"mesh": 1,
			"name": "Cube.028",
			"rotation": [0, 0.7071068286895752, 0, 0.7071068286895752],
			"scale": [1, 4, 3.6399998664855957],
			"translation": [-23.860000610351562, 3, 5.739999771118164]
		},
		{
			"mesh": 1,
			"name": "Cube.029",
			"rotation": [0, 0.7071068286895752, 0, 0.7071068286895752],
			"scale": [1, 4, 5.039999961853027],
			"translation": [-11.720000267028809, 3, 5.739999771118164]
		},
		{
			"mesh": 1,
			"name": "Cube.030",
			"rotation": [0, 0.7071068286895752, 0, 0.7071068286895752],
			"scale": [1, 1.5, 3],
			"translation": [-18.700000762939453, 6, 5.739999771118164]
		},
		{
			"mesh": 1,
			"name": "Cube.031",
			"rotation": [0, 0.43837109208106995, 0, 0.8987941145896912],
			"scale": [0.5, 4, 2.2799999713897705],
			"translation": [-7.680000305175781, 3, 3.3400001525878906]
		},
		{
			"mesh": 1,
			"name": "Cube.032",
			"rotation": [0, 0.3040330111980438, 0, 0.9526615142822266],
			"scale": [0.4999999701976776, 4, 2.2799999713897705],
			"translation": [-10.539999961853027, 3, 0.4000000059604645]
		},
		{
			"mesh": 1,
			"name": "Cube.033",
			"rotation": [0, 0.15988117456436157, 0, 0.9871363639831543],
			"scale": [0.5, 4, 2.2800002098083496],
			"translation": [-12.4399995803833, 3, -3.3399999141693115]
		},
		{
			"mesh": 1,
			"name": "Cube.034",
			"rotation": [0, 0.017452405765652657, 0, 0.9998477101325989],
			"scale": [0.5, 4, 2.2800002098083496],
			"translation": [-13.15999984741211, 3, -7.400000095367432]
		},
		{
			"mesh": 1,
			"name": "Cube.035",
			"rotation": [0, 0.7071068286895752, 0, 0.7071068286895752],
			"scale": [1, 4, 6.699999809265137],
			"translation": [-19.600000381469727, 3.000000476837158, -8.899999618530273]
		},
		{
			"mesh": 1,
			"name": "Cube.036",
			"scale": [7.199999809265137, 1.5, 5.479999542236328],
			"translation": [-20, -0.8600000143051147, -14.920000076293945]
		},
		{
			"mesh": 1,
			"name": "Cube.037",
			"rotation": [0, 0, -0.1736481934785843, 0.9848078489303589],
			"scale": [3.080000162124634, 1.2599999904632568, 5.6399993896484375],
			"translation": [-10.319999694824219, -1.5800000429153442, -15.119999885559082]
		},
		{
			"mesh": 0,
			"name": "Plane.005",
			"rotation": [0.22436830401420593, -0.22436828911304474, -0.6705660223960876, 0.6705661416053772],
			"scale": [4.199999809265137, 1, 3.1000001430511475],
			"translation": [-24.420000076293945, 3.200000047683716, -18.46000099182129]
		}
	],
	"meshes": [
		{
			"name": "Plane.001",
			"primitives": [
				{
					"attributes": {
						"POSITION": 0,
						"NORMAL": 1,
						"TEXCOORD_0": 2
					},
					"indices": 3
				}
			]
		},
		{
			"name": "Cube.013",
			"primitives": [
				{
					"attributes": {
						"POSITION": 4,
						"NORMAL": 5,
						"TEXCOORD_0": 6
					},
					"indices": 7
				}
			]
		}
	],
	"accessors": [
		{
			"bufferView": 0,
			"componentType": 5126,
			"count": 4,
			"max": [1, 0, 1],
			"min": [-1, 0, -1],
			"type": "VEC3"
		},
		{
			"bufferView": 1,
			"componentType": 5126,
			"count": 4,
			"type": "VEC3"
		},
		{
			"bufferView": 2,
			"componentType": 5126,
			"count": 4,
			"type": "VEC2"
		},
		{
			"bufferView": 3,
			"componentType": 5123,
			"count": 6,
			"type": "SCALAR"
		},
		{
			"bufferView": 4,
			"componentType": 5126,
			"count": 24,
			"max": [1, 1, 1],
			"min": [-1, -1, -1],
			"type": "VEC3"
		},
		{
			"bufferView": 5,
			"componentType": 5126,
			"count": 24,
			"type": "VEC3"
		},
		{
			"bufferView": 6,
			"componentType": 5126,
			"count": 24,
			"type": "VEC2"
		},
		{
			"bufferView": 7,
			"componentType": 5123,
			"count": 36,
			"type": "SCALAR"
		}
	],
	"bufferViews": [
		{
			"buffer": 0,
			"byteLength": 48,
			"byteOffset": 0,
			"target": 34962
		},
		{
			"buffer": 0,
			"byteLength": 48,
			"byteOffset": 48,
			"target": 34962
		},
		{
			"buffer": 0,
			"byteLength": 32,
			"byteOffset": 96,
			"target": 34962
		},
		{
			"buffer": 0,
			"byteLength": 12,
			"byteOffset": 128,
			"target": 34963
		},
		{
			"buffer": 0,
			"byteLength": 288,
			"byteOffset": 140,
			"target": 34962
		},
		{
			"buffer": 0,
			"byteLength": 288,
			"byteOffset": 428,
			"target": 34962
		},
		{
			"buffer": 0,
			"byteLength": 192,
			"byteOffset": 716,
			"target": 34962
		},
		{
			"buffer": 0,
			"byteLength": 72,
			"byteOffset": 908,
			"target": 34963
		}
	],
	"buffers": [
		{
			"byteLength": 980,
			"uri": "sample-map-colliders.bin"
		}
	]
}
