{
	"asset":{
		"generator":"Khronos glTF Blender I/O v4.1.62",
		"version":"2.0"
	},
	"scene":0,
	"scenes":[
		{
			"name":"Scene",
			"nodes":[
				0,
				1
			]
		}
	],
	"nodes":[
		{
			"mesh":0,
			"name":"Cylinder",
			"rotation":[
				0,
				0,
				-0.7071068286895752,
				0.7071068286895752
			],
			"scale":[
				0.5326594710350037,
				1.3363600969314575,
				0.5298216342926025
			],
			"translation":[
				0,
				0.9477288722991943,
				0
			]
		},
		{
			"mesh":1,
			"name":"Icosphere",
			"rotation":[
				0.7210371494293213,
				0,
				0,
				0.6928964257240295
			],
			"translation":[
				0,
				1.0581220388412476,
				0
			]
		}
	],
	"materials":[
		{
			"doubleSided":true,
			"name":"Material.001",
			"pbrMetallicRoughness":{
				"baseColorFactor":[
					0.14345639944076538,
					0.0451614186167717,
					0.006090801674872637,
					1
				],
				"metallicFactor":0,
				"roughnessFactor":0.5
			}
		},
		{
			"doubleSided":true,
			"name":"Material.002",
			"pbrMetallicRoughness":{
				"baseColorFactor":[
					0.37705934047698975,
					0.17712287604808807,
					0.029553666710853577,
					1
				],
				"metallicFactor":0
			}
		},
		{
			"doubleSided":true,
			"name":"Material",
			"pbrMetallicRoughness":{
				"baseColorFactor":[
					0.2765146791934967,
					0.08278857171535492,
					0.006658048368990421,
					1
				],
				"metallicFactor":0,
				"roughnessFactor":0.5
			}
		},
		{
			"doubleSided":true,
			"name":"Material.003",
			"pbrMetallicRoughness":{
				"baseColorFactor":[
					0.4018639326095581,
					0.5132083296775818,
					0.5678637027740479,
					1
				],
				"metallicFactor":0.3149605989456177,
				"roughnessFactor":0.38582709431648254
			}
		},
		{
			"doubleSided":true,
			"name":"Material.004",
			"pbrMetallicRoughness":{
				"baseColorFactor":[
					0.23454760015010834,
					0.19314445555210114,
					0.14950743317604065,
					1
				],
				"metallicFactor":0,
				"roughnessFactor":0.5
			}
		}
	],
	"meshes":[
		{
			"name":"Cylinder",
			"primitives":[
				{
					"attributes":{
						"POSITION":0,
						"NORMAL":1,
						"TEXCOORD_0":2
					},
					"indices":3,
					"material":0
				},
				{
					"attributes":{
						"POSITION":4,
						"NORMAL":5,
						"TEXCOORD_0":6
					},
					"indices":7,
					"material":1
				},
				{
					"attributes":{
						"POSITION":8,
						"NORMAL":9,
						"TEXCOORD_0":10
					},
					"indices":11,
					"material":2
				}
			]
		},
		{
			"name":"Icosphere",
			"primitives":[
				{
					"attributes":{
						"POSITION":12,
						"NORMAL":13,
						"TEXCOORD_0":14
					},
					"indices":15,
					"material":3
				},
				{
					"attributes":{
						"POSITION":16,
						"NORMAL":17,
						"TEXCOORD_0":18
					},
					"indices":19,
					"material":4
				}
			]
		}
	],
	"accessors":[
		{
			"bufferView":0,
			"componentType":5126,
			"count":354,
			"max":[
				1.126556158065796,
				1.0533137321472168,
				1.1054569482803345
			],
			"min":[
				-1.1010702848434448,
				-1.0534154176712036,
				-1.1002435684204102
			],
			"type":"VEC3"
		},
		{
			"bufferView":1,
			"componentType":5126,
			"count":354,
			"type":"VEC3"
		},
		{
			"bufferView":2,
			"componentType":5126,
			"count":354,
			"type":"VEC2"
		},
		{
			"bufferView":3,
			"componentType":5123,
			"count":780,
			"type":"SCALAR"
		},
		{
			"bufferView":4,
			"componentType":5126,
			"count":338,
			"max":[
				1,
				1.0533137321472168,
				1
			],
			"min":[
				-1.0249497890472412,
				-1.0534154176712036,
				-1
			],
			"type":"VEC3"
		},
		{
			"bufferView":5,
			"componentType":5126,
			"count":338,
			"type":"VEC3"
		},
		{
			"bufferView":6,
			"componentType":5126,
			"count":338,
			"type":"VEC2"
		},
		{
			"bufferView":7,
			"componentType":5123,
			"count":600,
			"type":"SCALAR"
		},
		{
			"bufferView":8,
			"componentType":5126,
			"count":141,
			"max":[
				1.126556158065796,
				1.0533137321472168,
				1.1054569482803345
			],
			"min":[
				-1.1010702848434448,
				-1.0534154176712036,
				-1.1002435684204102
			],
			"type":"VEC3"
		},
		{
			"bufferView":9,
			"componentType":5126,
			"count":141,
			"type":"VEC3"
		},
		{
			"bufferView":10,
			"componentType":5126,
			"count":141,
			"type":"VEC2"
		},
		{
			"bufferView":11,
			"componentType":5123,
			"count":384,
			"type":"SCALAR"
		},
		{
			"bufferView":12,
			"componentType":5126,
			"count":359,
			"max":[
				1.1033025979995728,
				1.1638050079345703,
				1.244782567024231
			],
			"min":[
				-1.4570996761322021,
				-1.1110413074493408,
				-1.1618808507919312
			],
			"type":"VEC3"
		},
		{
			"bufferView":13,
			"componentType":5126,
			"count":359,
			"type":"VEC3"
		},
		{
			"bufferView":14,
			"componentType":5126,
			"count":359,
			"type":"VEC2"
		},
		{
			"bufferView":15,
			"componentType":5123,
			"count":531,
			"type":"SCALAR"
		},
		{
			"bufferView":16,
			"componentType":5126,
			"count":169,
			"max":[
				0.9763026237487793,
				1.0223212242126465,
				0.9699355363845825
			],
			"min":[
				-0.951228678226471,
				-1,
				-1.0302280187606812
			],
			"type":"VEC3"
		},
		{
			"bufferView":17,
			"componentType":5126,
			"count":169,
			"type":"VEC3"
		},
		{
			"bufferView":18,
			"componentType":5126,
			"count":169,
			"type":"VEC2"
		},
		{
			"bufferView":19,
			"componentType":5123,
			"count":177,
			"type":"SCALAR"
		}
	],
	"bufferViews":[
		{
			"buffer":0,
			"byteLength":4248,
			"byteOffset":0,
			"target":34962
		},
		{
			"buffer":0,
			"byteLength":4248,
			"byteOffset":4248,
			"target":34962
		},
		{
			"buffer":0,
			"byteLength":2832,
			"byteOffset":8496,
			"target":34962
		},
		{
			"buffer":0,
			"byteLength":1560,
			"byteOffset":11328,
			"target":34963
		},
		{
			"buffer":0,
			"byteLength":4056,
			"byteOffset":12888,
			"target":34962
		},
		{
			"buffer":0,
			"byteLength":4056,
			"byteOffset":16944,
			"target":34962
		},
		{
			"buffer":0,
			"byteLength":2704,
			"byteOffset":21000,
			"target":34962
		},
		{
			"buffer":0,
			"byteLength":1200,
			"byteOffset":23704,
			"target":34963
		},
		{
			"buffer":0,
			"byteLength":1692,
			"byteOffset":24904,
			"target":34962
		},
		{
			"buffer":0,
			"byteLength":1692,
			"byteOffset":26596,
			"target":34962
		},
		{
			"buffer":0,
			"byteLength":1128,
			"byteOffset":28288,
			"target":34962
		},
		{
			"buffer":0,
			"byteLength":768,
			"byteOffset":29416,
			"target":34963
		},
		{
			"buffer":0,
			"byteLength":4308,
			"byteOffset":30184,
			"target":34962
		},
		{
			"buffer":0,
			"byteLength":4308,
			"byteOffset":34492,
			"target":34962
		},
		{
			"buffer":0,
			"byteLength":2872,
			"byteOffset":38800,
			"target":34962
		},
		{
			"buffer":0,
			"byteLength":1062,
			"byteOffset":41672,
			"target":34963
		},
		{
			"buffer":0,
			"byteLength":2028,
			"byteOffset":42736,
			"target":34962
		},
		{
			"buffer":0,
			"byteLength":2028,
			"byteOffset":44764,
			"target":34962
		},
		{
			"buffer":0,
			"byteLength":1352,
			"byteOffset":46792,
			"target":34962
		},
		{
			"buffer":0,
			"byteLength":354,
			"byteOffset":48144,
			"target":34963
		}
	],
	"buffers":[
		{
			"byteLength":48500,
			"uri":"raw_iron.bin"
		}
	]
}
