{
	"asset":{
		"generator":"Khronos glTF Blender I/O v4.1.63",
		"version":"2.0"
	},
	"scene":0,
	"scenes":[
		{
			"name":"Scene",
			"nodes":[
				0,
				1,
				2,
				3,
				4,
				5,
				6,
				7,
				8,
				9,
				10
			]
		}
	],
	"nodes":[
		{
			"mesh":0,
			"name":"body.007",
			"scale":[
				0.937124490737915,
				1,
				1
			],
			"translation":[
				0,
				2.146585464477539,
				0
			]
		},
		{
			"mesh":1,
			"name":"head.007",
			"scale":[
				0.8984315395355225,
				0.9587109684944153,
				0.9587109684944153
			],
			"translation":[
				0,
				3.987575054168701,
				0
			]
		},
		{
			"mesh":2,
			"name":"leg left.007",
			"scale":[
				0.08088663965463638,
				0.9437786936759949,
				0.0863136574625969
			],
			"translation":[
				0,
				0.9103175401687622,
				-0.46000000834465027
			]
		},
		{
			"mesh":3,
			"name":"leg right.007",
			"scale":[
				0.08088663965463638,
				0.9437786936759949,
				0.0863136574625969
			],
			"translation":[
				0,
				0.9103175401687622,
				0.46000000834465027
			]
		},
		{
			"mesh":4,
			"name":"foot left.007",
			"scale":[
				0.18387234210968018,
				0.18387234210968018,
				0.18387234210968018
			],
			"translation":[
				0.07565400004386902,
				0.12823782861232758,
				-0.4628182053565979
			]
		},
		{
			"mesh":5,
			"name":"foot right.007",
			"scale":[
				0.18387234210968018,
				0.18387234210968018,
				0.18387234210968018
			],
			"translation":[
				0.07565400004386902,
				0.12823782861232758,
				0.5771837830543518
			]
		},
		{
			"mesh":6,
			"name":"Cube.025",
			"rotation":[
				0.7071068286895752,
				0,
				0,
				0.7071068286895752
			],
			"scale":[
				-0.6089284420013428,
				-0.6089284420013428,
				-0.6089284420013428
			],
			"translation":[
				-0.8017759919166565,
				3.793959140777588,
				0
			]
		},
		{
			"mesh":7,
			"name":"Cube.026",
			"rotation":[
				0,
				0,
				-0.18234197795391083,
				0.9832351803779602
			],
			"scale":[
				-0.608928382396698,
				-0.608928382396698,
				-0.6089284420013428
			],
			"translation":[
				-0.8017759919166565,
				4.231659889221191,
				-0.34039801359176636
			]
		},
		{
			"mesh":8,
			"name":"Cube.027",
			"rotation":[
				0,
				0,
				-0.18234197795391083,
				0.9832351803779602
			],
			"scale":[
				-0.608928382396698,
				-0.608928382396698,
				-0.6089284420013428
			],
			"translation":[
				-0.8017759919166565,
				4.231659889221191,
				0.34039801359176636
			]
		},
		{
			"mesh":9,
			"name":"hand right.007",
			"rotation":[
				0.7361988425254822,
				-0.6176682114601135,
				-0.12674543261528015,
				0.24583105742931366
			],
			"scale":[
				0.4627770483493805,
				0.7831140756607056,
				0.7831153869628906
			],
			"translation":[
				-1.8973239660263062,
				2.0486390590667725,
				-1.9032127857208252
			]
		},
		{
			"mesh":10,
			"name":"hand left.007",
			"rotation":[
				0.1907138228416443,
				-0.14597861468791962,
				0.06309592723846436,
				0.9686781764030457
			],
			"scale":[
				0.30448251962661743,
				0.5152471661567688,
				0.5152481198310852
			],
			"translation":[
				0.31394442915916443,
				2.2653894424438477,
				-1.5375065803527832
			]
		}
	],
	"materials":[
		{
			"doubleSided":true,
			"name":"Material.005",
			"pbrMetallicRoughness":{
				"baseColorFactor":[
					0,
					0.8108825087547302,
					0.002020560670644045,
					1
				],
				"metallicFactor":0,
				"roughnessFactor":0.5
			}
		},
		{
			"doubleSided":true,
			"name":"Material.006",
			"pbrMetallicRoughness":{
				"baseColorFactor":[
					0,
					0.0036458494141697884,
					0.043452225625514984,
					1
				],
				"metallicFactor":0,
				"roughnessFactor":0.5
			}
		},
		{
			"doubleSided":true,
			"name":"Material.004",
			"pbrMetallicRoughness":{
				"baseColorFactor":[
					0,
					0.0036458494141697884,
					0.043452225625514984,
					1
				],
				"metallicFactor":0,
				"roughnessFactor":0.5
			}
		}
	],
	"meshes":[
		{
			"name":"Cube.079",
			"primitives":[
				{
					"attributes":{
						"POSITION":0,
						"NORMAL":1,
						"TEXCOORD_0":2
					},
					"indices":3,
					"material":0
				}
			]
		},
		{
			"name":"Cube.080",
			"primitives":[
				{
					"attributes":{
						"POSITION":4,
						"NORMAL":5,
						"TEXCOORD_0":6
					},
					"indices":7,
					"material":0
				}
			]
		},
		{
			"name":"Cylinder.021",
			"primitives":[
				{
					"attributes":{
						"POSITION":8,
						"NORMAL":9,
						"TEXCOORD_0":10
					},
					"indices":11,
					"material":0
				}
			]
		},
		{
			"name":"Cylinder.022",
			"primitives":[
				{
					"attributes":{
						"POSITION":12,
						"NORMAL":13,
						"TEXCOORD_0":14
					},
					"indices":11,
					"material":0
				}
			]
		},
		{
			"name":"Cube.081",
			"primitives":[
				{
					"attributes":{
						"POSITION":15,
						"NORMAL":16,
						"TEXCOORD_0":17
					},
					"indices":18,
					"material":0
				}
			]
		},
		{
			"name":"Cube.082",
			"primitives":[
				{
					"attributes":{
						"POSITION":19,
						"NORMAL":20,
						"TEXCOORD_0":21
					},
					"indices":18,
					"material":0
				}
			]
		},
		{
			"name":"Cube.083",
			"primitives":[
				{
					"attributes":{
						"POSITION":22,
						"NORMAL":23,
						"TEXCOORD_0":24
					},
					"indices":25,
					"material":1
				}
			]
		},
		{
			"name":"Cube.084",
			"primitives":[
				{
					"attributes":{
						"POSITION":26,
						"NORMAL":27,
						"TEXCOORD_0":28
					},
					"indices":29,
					"material":1
				}
			]
		},
		{
			"name":"Cube.085",
			"primitives":[
				{
					"attributes":{
						"POSITION":30,
						"NORMAL":31,
						"TEXCOORD_0":32
					},
					"indices":29,
					"material":2
				}
			]
		},
		{
			"name":"Cube.089",
			"primitives":[
				{
					"attributes":{
						"POSITION":33,
						"NORMAL":34,
						"TEXCOORD_0":35
					},
					"indices":36,
					"material":0
				}
			]
		},
		{
			"name":"Cube.088",
			"primitives":[
				{
					"attributes":{
						"POSITION":37,
						"NORMAL":38,
						"TEXCOORD_0":39
					},
					"indices":40,
					"material":0
				}
			]
		}
	],
	"accessors":[
		{
			"bufferView":0,
			"componentType":5126,
			"count":224,
			"max":[
				0.9102854132652283,
				1.0557153224945068,
				0.9102854132652283
			],
			"min":[
				-0.9102854132652283,
				-0.9018439054489136,
				-0.9102854132652283
			],
			"type":"VEC3"
		},
		{
			"bufferView":1,
			"componentType":5126,
			"count":224,
			"type":"VEC3"
		},
		{
			"bufferView":2,
			"componentType":5126,
			"count":224,
			"type":"VEC2"
		},
		{
			"bufferView":3,
			"componentType":5123,
			"count":324,
			"type":"SCALAR"
		},
		{
			"bufferView":4,
			"componentType":5126,
			"count":368,
			"max":[
				0.9663493633270264,
				0.7516860961914062,
				0.9663493633270264
			],
			"min":[
				-0.9663493633270264,
				-0.7516862154006958,
				-0.9663493633270264
			],
			"type":"VEC3"
		},
		{
			"bufferView":5,
			"componentType":5126,
			"count":368,
			"type":"VEC3"
		},
		{
			"bufferView":6,
			"componentType":5126,
			"count":368,
			"type":"VEC2"
		},
		{
			"bufferView":7,
			"componentType":5123,
			"count":516,
			"type":"SCALAR"
		},
		{
			"bufferView":8,
			"componentType":5126,
			"count":192,
			"max":[
				1,
				1,
				1
			],
			"min":[
				-1,
				-1,
				-1
			],
			"type":"VEC3"
		},
		{
			"bufferView":9,
			"componentType":5126,
			"count":192,
			"type":"VEC3"
		},
		{
			"bufferView":10,
			"componentType":5126,
			"count":192,
			"type":"VEC2"
		},
		{
			"bufferView":11,
			"componentType":5123,
			"count":372,
			"type":"SCALAR"
		},
		{
			"bufferView":12,
			"componentType":5126,
			"count":192,
			"max":[
				1,
				1,
				1
			],
			"min":[
				-1,
				-1,
				-1
			],
			"type":"VEC3"
		},
		{
			"bufferView":13,
			"componentType":5126,
			"count":192,
			"type":"VEC3"
		},
		{
			"bufferView":14,
			"componentType":5126,
			"count":192,
			"type":"VEC2"
		},
		{
			"bufferView":15,
			"componentType":5126,
			"count":30,
			"max":[
				1.3272992372512817,
				0.21638387441635132,
				1
			],
			"min":[
				-2.4162750244140625,
				-1,
				-1.789177417755127
			],
			"type":"VEC3"
		},
		{
			"bufferView":16,
			"componentType":5126,
			"count":30,
			"type":"VEC3"
		},
		{
			"bufferView":17,
			"componentType":5126,
			"count":30,
			"type":"VEC2"
		},
		{
			"bufferView":18,
			"componentType":5123,
			"count":48,
			"type":"SCALAR"
		},
		{
			"bufferView":19,
			"componentType":5126,
			"count":30,
			"max":[
				1.3272992372512817,
				0.21638387441635132,
				1
			],
			"min":[
				-2.4162750244140625,
				-1,
				-1.7891775369644165
			],
			"type":"VEC3"
		},
		{
			"bufferView":20,
			"componentType":5126,
			"count":30,
			"type":"VEC3"
		},
		{
			"bufferView":21,
			"componentType":5126,
			"count":30,
			"type":"VEC2"
		},
		{
			"bufferView":22,
			"componentType":5126,
			"count":24,
			"max":[
				0.12331390380859375,
				0.3768068552017212,
				0.23079679906368256
			],
			"min":[
				-0.12331390380859375,
				-0.3768068552017212,
				-0.13226830959320068
			],
			"type":"VEC3"
		},
		{
			"bufferView":23,
			"componentType":5126,
			"count":24,
			"type":"VEC3"
		},
		{
			"bufferView":24,
			"componentType":5126,
			"count":24,
			"type":"VEC2"
		},
		{
			"bufferView":25,
			"componentType":5123,
			"count":36,
			"type":"SCALAR"
		},
		{
			"bufferView":26,
			"componentType":5126,
			"count":24,
			"max":[
				0.12331390380859375,
				0.3768068552017212,
				0.13226842880249023
			],
			"min":[
				-0.12331390380859375,
				-0.3768068552017212,
				-0.13226830959320068
			],
			"type":"VEC3"
		},
		{
			"bufferView":27,
			"componentType":5126,
			"count":24,
			"type":"VEC3"
		},
		{
			"bufferView":28,
			"componentType":5126,
			"count":24,
			"type":"VEC2"
		},
		{
			"bufferView":29,
			"componentType":5123,
			"count":36,
			"type":"SCALAR"
		},
		{
			"bufferView":30,
			"componentType":5126,
			"count":24,
			"max":[
				0.12331390380859375,
				0.3768068552017212,
				0.13226842880249023
			],
			"min":[
				-0.12331390380859375,
				-0.3768068552017212,
				-0.13226830959320068
			],
			"type":"VEC3"
		},
		{
			"bufferView":31,
			"componentType":5126,
			"count":24,
			"type":"VEC3"
		},
		{
			"bufferView":32,
			"componentType":5126,
			"count":24,
			"type":"VEC2"
		},
		{
			"bufferView":33,
			"componentType":5126,
			"count":72,
			"max":[
				1.3481193780899048,
				0.44371485710144043,
				0.9865543842315674
			],
			"min":[
				-0.8679153919219971,
				-0.5842263102531433,
				-0.6333475112915039
			],
			"type":"VEC3"
		},
		{
			"bufferView":34,
			"componentType":5126,
			"count":72,
			"type":"VEC3"
		},
		{
			"bufferView":35,
			"componentType":5126,
			"count":72,
			"type":"VEC2"
		},
		{
			"bufferView":36,
			"componentType":5123,
			"count":132,
			"type":"SCALAR"
		},
		{
			"bufferView":37,
			"componentType":5126,
			"count":72,
			"max":[
				1.3481192588806152,
				0.6197910308837891,
				0.5966057777404785
			],
			"min":[
				-0.8679153919219971,
				-0.9439473152160645,
				-0.5283350944519043
			],
			"type":"VEC3"
		},
		{
			"bufferView":38,
			"componentType":5126,
			"count":72,
			"type":"VEC3"
		},
		{
			"bufferView":39,
			"componentType":5126,
			"count":72,
			"type":"VEC2"
		},
		{
			"bufferView":40,
			"componentType":5123,
			"count":132,
			"type":"SCALAR"
		}
	],
	"bufferViews":[
		{
			"buffer":0,
			"byteLength":2688,
			"byteOffset":0,
			"target":34962
		},
		{
			"buffer":0,
			"byteLength":2688,
			"byteOffset":2688,
			"target":34962
		},
		{
			"buffer":0,
			"byteLength":1792,
			"byteOffset":5376,
			"target":34962
		},
		{
			"buffer":0,
			"byteLength":648,
			"byteOffset":7168,
			"target":34963
		},
		{
			"buffer":0,
			"byteLength":4416,
			"byteOffset":7816,
			"target":34962
		},
		{
			"buffer":0,
			"byteLength":4416,
			"byteOffset":12232,
			"target":34962
		},
		{
			"buffer":0,
			"byteLength":2944,
			"byteOffset":16648,
			"target":34962
		},
		{
			"buffer":0,
			"byteLength":1032,
			"byteOffset":19592,
			"target":34963
		},
		{
			"buffer":0,
			"byteLength":2304,
			"byteOffset":20624,
			"target":34962
		},
		{
			"buffer":0,
			"byteLength":2304,
			"byteOffset":22928,
			"target":34962
		},
		{
			"buffer":0,
			"byteLength":1536,
			"byteOffset":25232,
			"target":34962
		},
		{
			"buffer":0,
			"byteLength":744,
			"byteOffset":26768,
			"target":34963
		},
		{
			"buffer":0,
			"byteLength":2304,
			"byteOffset":27512,
			"target":34962
		},
		{
			"buffer":0,
			"byteLength":2304,
			"byteOffset":29816,
			"target":34962
		},
		{
			"buffer":0,
			"byteLength":1536,
			"byteOffset":32120,
			"target":34962
		},
		{
			"buffer":0,
			"byteLength":360,
			"byteOffset":33656,
			"target":34962
		},
		{
			"buffer":0,
			"byteLength":360,
			"byteOffset":34016,
			"target":34962
		},
		{
			"buffer":0,
			"byteLength":240,
			"byteOffset":34376,
			"target":34962
		},
		{
			"buffer":0,
			"byteLength":96,
			"byteOffset":34616,
			"target":34963
		},
		{
			"buffer":0,
			"byteLength":360,
			"byteOffset":34712,
			"target":34962
		},
		{
			"buffer":0,
			"byteLength":360,
			"byteOffset":35072,
			"target":34962
		},
		{
			"buffer":0,
			"byteLength":240,
			"byteOffset":35432,
			"target":34962
		},
		{
			"buffer":0,
			"byteLength":288,
			"byteOffset":35672,
			"target":34962
		},
		{
			"buffer":0,
			"byteLength":288,
			"byteOffset":35960,
			"target":34962
		},
		{
			"buffer":0,
			"byteLength":192,
			"byteOffset":36248,
			"target":34962
		},
		{
			"buffer":0,
			"byteLength":72,
			"byteOffset":36440,
			"target":34963
		},
		{
			"buffer":0,
			"byteLength":288,
			"byteOffset":36512,
			"target":34962
		},
		{
			"buffer":0,
			"byteLength":288,
			"byteOffset":36800,
			"target":34962
		},
		{
			"buffer":0,
			"byteLength":192,
			"byteOffset":37088,
			"target":34962
		},
		{
			"buffer":0,
			"byteLength":72,
			"byteOffset":37280,
			"target":34963
		},
		{
			"buffer":0,
			"byteLength":288,
			"byteOffset":37352,
			"target":34962
		},
		{
			"buffer":0,
			"byteLength":288,
			"byteOffset":37640,
			"target":34962
		},
		{
			"buffer":0,
			"byteLength":192,
			"byteOffset":37928,
			"target":34962
		},
		{
			"buffer":0,
			"byteLength":864,
			"byteOffset":38120,
			"target":34962
		},
		{
			"buffer":0,
			"byteLength":864,
			"byteOffset":38984,
			"target":34962
		},
		{
			"buffer":0,
			"byteLength":576,
			"byteOffset":39848,
			"target":34962
		},
		{
			"buffer":0,
			"byteLength":264,
			"byteOffset":40424,
			"target":34963
		},
		{
			"buffer":0,
			"byteLength":864,
			"byteOffset":40688,
			"target":34962
		},
		{
			"buffer":0,
			"byteLength":864,
			"byteOffset":41552,
			"target":34962
		},
		{
			"buffer":0,
			"byteLength":576,
			"byteOffset":42416,
			"target":34962
		},
		{
			"buffer":0,
			"byteLength":264,
			"byteOffset":42992,
			"target":34963
		}
	],
	"buffers":[
		{
			"byteLength":43256,
			"uri":"player_green_slap3.bin"
		}
	]
}
